PathFileType	4	(X/Y/Z)	Patient4_TMGait_0pt8_01_left_39.trc.trc
DataRate	CameraRate	NumFrames	NumMarkers	Units	OrigDataRate	OrigDataStartFrame	OrigNumFrames
87.500000000000	87.500000000000	4	33	mm	87.500000000000	106	       141
Frame#	Time	Sacral			L.Shoulder			Chest			R.Shoulder			Neck			R.ASIS			L.ASIS			R.Thigh.Superior			R.Thigh.Lateral			R.Thigh.Inferior			R.Patella			L.Thigh.Superior			L.Thigh.Lateral			L.Thigh.Inferior			L.Patella			L.Shank.Superior			L.Shank.Lateral			L.Shank.Inferior			R.Shank.Superior			R.Shank.Lateral			R.Shank.Inferior			R.Heel			R.Midfoot.Superior			R.Midfoot.Lateral			R.Toe			L.Heel			L.Midfoot.Lateral			L.Midfoot.Superior			L.Toe			L.Elbow			L.Wrist			R.Elbow			R.Wrist			
		X1	Y1	Z1	X2	Y2	Z2	X3	Y3	Z3	X4	Y4	Z4	X5	Y5	Z5	X6	Y6	Z6	X7	Y7	Z7	X8	Y8	Z8	X9	Y9	Z9	X10	Y10	Z10	X11	Y11	Z11	X12	Y12	Z12	X13	Y13	Z13	X14	Y14	Z14	X15	Y15	Z15	X16	Y16	Z16	X17	Y17	Z17	X18	Y18	Z18	X19	Y19	Z19	X20	Y20	Z20	X21	Y21	Z21	X22	Y22	Z22	X23	Y23	Z23	X24	Y24	Z24	X25	Y25	Z25	X26	Y26	Z26	X27	Y27	Z27	X28	Y28	Z28	X29	Y29	Z29	X30	Y30	Z30	X31	Y31	Z31	X32	Y32	Z32	X33	Y33	Z33	

106	44.370000000000	871.878822340793	1012.501207337741	521.292537631611	1032.987349658358	1432.641256363890	316.986453151640	1157.745916299036	1361.316961550461	461.833577542644	1105.585343682392	1438.742914118127	646.676280440188	1056.975312794657	1496.373190894805	469.795466905614	1109.848763503783	943.020491543760	609.254181191233	1061.917461979102	967.216074133958	338.842003744686	1138.005993506014	738.221864919400	576.335637130920	1055.428289526905	633.369532115404	642.457074002937	1121.232520629389	577.631547268478	555.926419971140	1116.156370664130	489.919528160390	560.752579169682	1156.628272826362	800.850063176409	363.544309174390	1121.017486369067	671.057569970424	285.047426746987	1233.046750235384	617.121454298171	338.656906864696	1256.350572471446	532.789473515663	328.104181781002	1205.872083091347	457.220010941093	320.533750510005	1078.092431344699	379.973453881427	278.252019305864	1107.296790055740	249.261994535041	324.648337105722	1086.079673049468	402.711470659064	570.362243264922	1015.619362673374	300.809358793302	635.331758403715	1049.496689977393	205.323226983024	568.411871871029	908.648107430225	43.094052887369	545.479152149462	1081.301170353571	97.726010606953	574.581354154293	994.361857580172	37.571606950343	616.977681302194	1202.052600683896	44.422011785627	598.399499057114	946.497682278923	138.474651148632	373.093178792380	1004.998899236175	106.950158836652	287.105410780428	1107.284944979962	138.315909244628	300.127762963244	1204.712906958492	46.800252217023	262.183628099450	949.417235307733	1080.421925036900	230.911074156148	960.872030572604	820.683318406342	223.886852993819	1157.340527861463	1092.914320373442	764.977853296749	1364.393313292084	958.506033773867	688.266409781368	
107	44.381428571429	871.273707358983	1013.448530614946	522.646887636548	1032.715848075589	1432.964229455693	317.761372489609	1157.973786666462	1361.205961874660	461.914388264983	1107.126347486323	1438.909907755408	647.049335795923	1057.227706046301	1496.541378921900	470.590384898183	1109.079174439160	942.865089181989	609.654555485625	1060.443679445664	967.532024735090	339.256303575781	1133.843323744799	737.175093134301	576.610062914149	1049.781469336386	633.418501648100	643.325226430691	1114.230234189444	576.613370718667	556.780880693352	1107.794018326171	489.502628641948	561.607258374777	1154.902980842142	802.057452627379	364.570273744056	1120.230778713312	672.052730212734	285.694802275236	1231.868005962286	618.613102161296	339.975352415959	1256.571925389724	536.115256251013	329.187594668554	1210.220174732935	459.673773315728	321.132594039199	1088.160751270669	374.428607921424	278.071374729999	1125.911558738266	245.550325380519	324.244488798448	1077.737409055440	402.610481521110	571.115380910965	1006.949804990088	300.794739599721	636.000241562273	1040.532072347303	205.285158099565	568.857738015802	899.423951095790	43.130535170528	545.539214200405	1072.136206597800	97.683883024136	574.762531173031	985.150095719464	37.559585049649	617.046027820458	1192.842870621192	44.194578522778	598.491368764411	973.135176317245	123.613801173324	371.994457374698	1033.665486936333	96.901816851281	285.896170191098	1133.513653612266	135.086705043814	299.273076992067	1237.071480069351	50.745063980188	260.943691285269	942.191786092992	1082.646157043394	232.232910369655	943.045003522852	822.876012724152	227.331480963167	1166.606215127835	1094.334277852779	763.402921794751	1380.338349760129	976.353729119486	680.019880584163	
108	44.392857142857	870.763873956601	1014.242460854483	523.811334101502	1032.546199663883	1433.195857162039	318.453234871013	1158.276782238975	1360.941626469677	461.895461392343	1108.701476840447	1438.858755916822	647.317569500999	1057.533761761565	1496.571256530418	471.341634936146	1108.374486878169	942.601770478434	609.931519742848	1059.144268776654	967.558517433661	339.525091436977	1129.674637123404	736.079864520053	576.895570770443	1044.094214147265	633.436832068067	644.189665984084	1107.213981744527	575.569302794687	557.709114370378	1099.472166641939	489.089494844545	562.560755541804	1152.961299220102	802.480103214638	365.463447054947	1118.857165540520	672.385867233997	286.198434223293	1229.841326869085	619.100933840693	341.358164365295	1255.819340833428	538.683802614461	330.390653319109	1213.709510717743	461.737319604478	321.818005642563	1098.211045738420	368.780176710472	277.574314883795	1144.298126796623	242.389245673031	323.845536160181	1069.367378719838	402.525655762847	571.909988336755	998.227433558190	300.800527007851	636.701714716894	1031.546150342509	205.263445909169	569.336228703903	890.192692362787	43.177868448913	545.599616125520	1062.971188057129	97.618984320024	574.936249449743	975.933431532563	37.542172871193	617.110693500057	1183.638175927975	43.939264448816	598.591685326782	1000.309963539584	109.824948056165	370.477397404132	1062.858034848212	88.043260719218	284.535809285123	1159.689950386212	132.871663074465	298.571206157913	1268.948455993650	56.109257257834	260.373111154191	934.709733758408	1085.121503873091	233.377889915461	926.438101693353	825.675098361264	230.747206176519	1175.672303484109	1095.744581940166	761.581525449933	1394.809815546258	994.891812154323	671.739175373413	
109	44.404285714286	870.358308255600	1014.870663622475	524.776180832655	1032.471959629599	1433.329344797532	319.050237269770	1158.645335293116	1360.525047149961	461.773354508493	1110.287016649814	1438.595253216641	647.471636084652	1057.883735235900	1496.463681345966	472.034156805199	1107.753374339167	942.233470645935	610.094387530077	1058.037557667595	967.294568273736	339.660044363165	1125.539451391356	734.939870382454	577.230095463855	1038.377259018705	633.427635485446	645.039112979393	1100.223556611203	574.510199396503	558.712188697264	1091.238297459309	488.667307339990	563.604811824838	1150.837310728267	802.119801144243	366.227909143604	1116.941529370500	672.076554960689	286.522380750033	1227.048656029730	618.620889725098	342.751816584591	1254.177691146619	540.509626875800	331.690473681976	1216.372582792724	463.433791890037	322.576850017811	1108.187541636621	363.182877811618	276.780721799726	1162.267924706021	239.909577210718	323.491226235569	1060.987119835997	402.447593604125	572.734591875647	989.464880691802	300.832739029321	637.431447852797	1022.548907164253	205.259023463839	569.840988425516	880.955636129890	43.233914379383	545.660090421863	1053.801942853087	97.533616978338	575.104117116563	966.709868046204	37.518724957119	617.169858035275	1174.437916711951	43.665691695071	598.698644746644	1027.683162381119	97.390901019734	368.603493908557	1092.273412743356	80.548772332311	283.126757830653	1185.547202399857	131.785137268572	298.103866326711	1300.044032756459	62.909065516922	260.658263194997	927.042883298809	1087.836242088485	234.376734345506	911.012395344797	828.909963153342	234.123253544248	1184.532682318404	1097.134707726856	759.507434366762	1407.731506302877	1013.966315296988	663.502303849471	
